<svg width="1440" height="921" viewBox="0 0 1440 921" fill="none" xmlns="http://www.w3.org/2000/svg">
<g clip-path="url(#clip0_1442_6231)">
<rect width="1440" height="921" fill="#FFF8F2"/>
<path fill-rule="evenodd" clip-rule="evenodd" d="M1076.52 291.417L1075.86 -1.36167C1071.64 -1.35209 1067.41 -1.47579 1063.16 -1.46616C765.587 -0.835993 524.851 205.785 525.429 460.014L525.439 464.483L521.859 464.491L521.953 456.746C521.428 202.707 279.614 -2.69552 -18.1335 -2.02052C-19.9213 -2.01646 -21.6828 -2.01247 -23.4706 -2.00842L-22.8075 290.367C-21.0197 290.363 -19.2581 290.36 -17.4703 290.354C91.0014 290.062 179.152 364.875 179.419 457.457C179.419 457.478 179.419 457.5 179.419 457.523C179.427 461.173 179.305 464.779 179.027 468.366L183.071 468.356L183.075 469.823C183.355 562.44 95.6849 637.772 -12.7458 638.077C-12.7793 638.077 -12.8163 638.077 -12.8498 638.077L-25.5469 637.75L-24.883 930.442L-12.1864 930.546C285.338 929.893 526.073 723.295 525.498 469.046L525.488 464.575L867.862 463.798C867.858 462.272 867.854 460.768 867.852 459.241C867.641 366.623 955.37 291.343 1063.8 291.096C1063.81 291.096 1063.82 291.096 1063.82 291.096C1068.1 291.086 1072.32 291.188 1076.52 291.423L1076.52 291.417ZM1077.58 756.166L1076.91 463.365C1072.69 463.375 1068.47 463.251 1064.22 463.261C766.64 463.913 525.905 670.512 526.483 924.763C526.487 926.29 526.489 927.794 526.492 929.322L868.919 928.544C868.915 927.019 868.911 925.513 868.909 923.987C868.698 831.37 956.429 756.085 1064.86 755.839C1064.87 755.839 1064.87 755.839 1064.88 755.839C1069.16 755.829 1073.38 755.931 1077.58 756.166ZM1627.95 290.166L1627.28 -2.61175C1623.06 -2.60217 1618.84 -2.72588 1614.59 -2.71624C1317.01 -2.08608 1076.28 204.534 1076.85 458.763C1076.86 460.29 1076.86 461.794 1076.86 463.322L1419.29 462.544C1419.28 461.019 1419.28 459.515 1419.28 457.987C1419.07 365.37 1506.8 290.089 1615.23 289.843C1615.24 289.843 1615.25 289.843 1615.25 289.843C1619.53 289.833 1623.75 289.935 1627.95 290.17L1627.95 290.166ZM1629 754.916L1628.34 462.115C1624.11 462.125 1619.89 462.002 1615.64 462.012C1318.06 462.664 1077.33 669.263 1077.91 923.513C1077.91 925.039 1077.91 926.545 1077.92 928.07L1420.34 927.295C1420.34 925.767 1420.33 924.263 1420.33 922.736C1420.12 830.119 1507.85 754.838 1616.28 754.593C1616.29 754.593 1616.3 754.593 1616.31 754.593C1620.58 754.583 1624.8 754.683 1629 754.918V754.916ZM2177.34 288.863L2176.67 -3.87946L2166 -3.96631C1868.43 -3.33616 1627.69 203.284 1628.27 457.513C1628.28 459.041 1628.28 460.545 1628.28 462.07L1970.7 461.295C1970.7 459.767 1970.7 458.264 1970.7 456.738C1970.49 364.121 2058.22 288.838 2166.64 288.593C2166.66 288.593 2166.66 288.593 2166.66 288.593L2177.34 288.867V288.863ZM2178.39 753.614L2177.73 460.848L2167.06 460.76C1869.49 461.412 1628.75 668.011 1629.33 922.264C1629.33 923.79 1629.33 925.293 1629.34 926.821L1971.76 926.043C1971.76 924.518 1971.76 923.014 1971.74 921.487C1971.54 828.869 2059.27 753.585 2167.7 753.34H2167.72L2178.39 753.614Z" fill="white"/>
</g>
<defs>
<clipPath id="clip0_1442_6231">
<rect width="1440" height="921" fill="white"/>
</clipPath>
</defs>
</svg>
